<?xml version="1.0" standalone="no"?>
<!DOCTYPE svg PUBLIC "-//W3C//DTD SVG 20010904//EN"
 "http://www.w3.org/TR/2001/REC-SVG-20010904/DTD/svg10.dtd">
<svg version="1.0" xmlns="http://www.w3.org/2000/svg"
 width="340.000000pt" height="332.000000pt" viewBox="0 0 340.000000 332.000000"
 preserveAspectRatio="xMidYMid meet">

<g transform="translate(0.000000,332.000000) scale(0.100000,-0.100000)"
fill="#000000" stroke="none">
<path d="M0 1660 l0 -1660 1700 0 1700 0 0 1660 0 1660 -1700 0 -1700 0 0
-1660z m1111 1469 c57 -32 99 -87 106 -138 l6 -41 -44 0 c-24 0 -54 -3 -66 -6
-18 -5 -25 1 -40 32 -22 47 -53 64 -116 64 -83 0 -126 -36 -104 -87 11 -25 48
-41 172 -73 106 -28 158 -60 191 -116 23 -39 26 -53 22 -114 -3 -58 -8 -75
-34 -107 -44 -56 -113 -87 -203 -92 -148 -7 -242 36 -287 132 -13 29 -24 64
-24 80 0 25 3 27 43 27 23 0 51 3 63 6 17 5 24 -2 39 -41 25 -67 61 -87 147
-83 81 4 118 31 118 84 0 46 -30 66 -146 98 -118 33 -162 54 -202 100 -52 60
-55 146 -8 215 45 65 122 92 243 87 62 -3 91 -9 124 -27z m389 -84 l0 -85 45
0 45 0 0 -55 0 -55 -45 0 -45 0 0 -132 c0 -73 4 -139 9 -147 6 -10 20 -12 44
-8 l35 5 5 -46 c3 -26 1 -51 -3 -56 -15 -15 -115 -19 -154 -6 -59 19 -69 50
-74 232 l-4 157 -27 3 c-24 3 -26 7 -29 56 l-3 52 30 0 c30 0 31 1 31 48 l0
48 63 36 c34 21 65 37 70 38 4 0 7 -38 7 -85z m525 -103 c87 -44 134 -127 135
-232 0 -202 -195 -321 -377 -230 -94 47 -133 116 -133 236 0 106 67 203 166
240 53 20 158 13 209 -14z m617 -8 c80 -56 118 -190 88 -313 -35 -146 -177
-215 -293 -141 l-47 30 0 -120 0 -120 -70 0 -70 0 2 343 3 342 63 3 62 3 0
-35 0 -35 25 25 c62 62 163 70 237 18z m-2157 -1109 c27 -124 51 -225 54 -225
4 0 33 101 65 225 l59 225 83 0 83 0 9 -32 c5 -18 31 -122 58 -230 26 -109 51
-198 54 -198 3 0 28 103 55 228 l50 227 68 3 c53 2 67 0 67 -12 0 -8 -34 -153
-75 -323 -41 -169 -77 -318 -80 -330 -5 -21 -11 -23 -79 -23 l-75 0 -15 53
c-8 28 -38 141 -67 250 -29 108 -54 195 -56 193 -2 -1 -28 -97 -59 -212 -30
-115 -59 -226 -65 -247 l-10 -38 -77 3 -77 3 -67 280 c-37 154 -74 308 -82
343 l-14 62 72 0 73 0 48 -225z m2265 98 l0 -126 23 21 c85 80 231 63 276 -32
19 -38 21 -61 21 -234 l0 -192 -65 0 -65 0 0 170 c0 104 -4 179 -11 194 -17
36 -59 51 -104 36 -63 -21 -70 -42 -73 -232 l-4 -168 -64 0 -64 0 0 345 0 345
65 0 65 0 0 -127z m-850 22 l0 -85 45 0 45 0 0 -55 0 -55 -45 0 -45 0 0 -132
c0 -73 4 -139 9 -147 6 -10 20 -12 44 -8 l35 5 5 -46 c3 -26 1 -51 -3 -56 -15
-15 -115 -19 -154 -6 -59 19 -69 50 -74 232 l-4 157 -27 3 c-24 3 -26 7 -29
56 l-3 52 30 0 c30 0 31 1 31 48 l0 48 63 36 c34 21 65 37 70 38 4 0 7 -38 7
-85z m-377 -86 c21 -5 52 -23 70 -39 l32 -28 6 -184 c3 -101 11 -196 17 -211
7 -16 12 -30 12 -33 0 -3 -30 -4 -67 -2 -62 3 -68 5 -71 26 -4 24 -17 29 -28
11 -13 -21 -89 -49 -137 -49 -95 0 -160 59 -160 145 0 55 26 101 71 124 20 10
81 28 135 41 87 19 97 24 97 44 0 43 -24 61 -80 61 -45 0 -55 -4 -75 -29 -21
-27 -26 -28 -74 -21 -28 4 -54 11 -57 16 -7 13 32 79 59 99 52 37 171 51 250
29z m850 0 c71 -19 163 -127 127 -149 -25 -15 -114 -22 -119 -9 -10 31 -51 59
-86 59 -74 0 -105 -42 -105 -143 0 -109 31 -157 100 -157 44 0 70 16 86 56 8
19 18 34 23 34 15 0 114 -20 118 -24 8 -8 -29 -82 -55 -110 -78 -83 -241 -90
-328 -14 -51 45 -76 101 -82 183 -9 140 43 231 154 270 47 17 115 19 167 4z
m-1393 -969 l0 -60 -105 0 -105 0 0 -285 0 -285 -70 0 -70 0 0 285 0 285 -100
0 -100 0 0 60 0 60 275 0 275 0 0 -60z m200 -5 l0 -65 -65 0 -65 0 0 65 0 65
65 0 65 0 0 -65z m474 -129 c18 -7 42 -25 53 -39 l20 -26 19 21 c26 29 92 58
134 58 52 0 120 -38 142 -80 16 -30 18 -60 18 -232 l0 -198 -65 0 -65 0 0 169
c0 93 -4 181 -10 196 -15 38 -54 50 -99 28 -48 -24 -59 -68 -60 -250 l-1 -143
-65 0 -65 0 0 169 c0 93 -4 181 -10 195 -15 41 -51 52 -97 30 -53 -27 -62 -59
-62 -241 l-1 -153 -65 0 -65 0 0 250 0 250 60 0 60 0 0 -31 0 -30 33 25 c62
47 128 58 191 32z m813 -9 c75 -39 114 -107 127 -224 l7 -53 -166 0 c-161 0
-165 -1 -165 -21 0 -30 29 -76 57 -88 45 -21 80 -13 110 23 l28 34 62 -11 63
-12 -16 -30 c-40 -77 -105 -114 -202 -115 -141 0 -229 85 -240 231 -6 94 17
169 71 223 23 23 58 47 77 53 46 16 148 10 187 -10z m528 11 c29 -13 30 -19 9
-82 -13 -37 -20 -46 -33 -40 -34 14 -59 16 -81 4 -40 -21 -50 -67 -50 -230 l0
-150 -70 0 -70 0 0 250 0 250 65 0 65 0 0 -31 0 -32 21 27 c35 44 92 58 144
34z m-1815 -248 l0 -250 -65 0 -65 0 0 250 0 250 65 0 65 0 0 -250z"/>
<path d="M1848 2844 c-39 -21 -60 -67 -60 -134 0 -96 42 -150 117 -150 75 0
117 54 117 150 0 33 -7 70 -16 88 -29 56 -101 77 -158 46z"/>
<path d="M2424 2829 c-26 -27 -29 -38 -32 -107 -4 -91 16 -134 73 -158 30 -12
39 -12 69 0 48 20 68 63 68 146 0 103 -33 149 -108 150 -32 0 -46 -6 -70 -31z"/>
<path d="M1427 1579 c-80 -20 -97 -32 -97 -69 0 -57 76 -83 134 -45 30 20 39
46 34 97 l-3 34 -68 -17z"/>
<path d="M2343 663 c-30 -6 -73 -59 -73 -89 0 -24 1 -24 95 -24 88 0 95 2 95
20 0 35 -22 69 -55 85 -18 8 -35 14 -37 14 -1 -1 -13 -4 -25 -6z"/>
</g>
</svg>
